<?xml version="1.0" encoding="utf-8"?>
<!-- Generator: Adobe Illustrator 19.0.0, SVG Export Plug-In . SVG Version: 6.00 Build 0)  -->
<svg version="1.1" id="Camada_1" xmlns="http://www.w3.org/2000/svg" xmlns:xlink="http://www.w3.org/1999/xlink" x="0px" y="0px"
	 viewBox="7 241.9 653.5 653.5" style="enable-background:new 7 241.9 653.5 653.5;" xml:space="preserve">
<path d="M38.8,702.7c-13.3-29.8-24.9-60-23.4-93.3c0.6-12.4,2.9-24.4,6.8-36.1c0.4-1.3,0.7-2.6,0.7-4c-1.4-26.9-1.8-53.8,0.1-80.6
	c0.1-2.1,1.7-4.9,0-6.2c-1.3-1-4-0.2-6.1-0.2c-2.6,0-5.3,0-7.9,0.2c-1.9,0.1-1.9-1-2-2.4c-0.1-1.3,0.1-2.4,1.8-2.2
	c1.9,0.3,3.4-0.8,4.9-1.7c42-24.9,85-48,130.2-66.6c44.5-18.3,90.5-31.4,137.8-40.3c37.7-7.2,75.6-12.2,113.7-16.4
	c11.8-1.3,23.6-2.5,35.4-3.8c1.3-0.1,2.6-0.2,3.5-1.1c1.5-1.4,2.4-1.1,3.6,0.5c1.5,2,0,2.5-1.1,3.3c-34.8,25.4-69.5,50.8-104.3,76.2
	c-0.9,0.7-1.8,1.4-2.7,2.1c0.3,0.8,0.9,0.9,1.5,1.1c12.6,4.5,23.3,11.9,32.8,21.2c1.1,1.1,2.4,2,3.8,2.7
	c10.6,5.1,20.1,11.8,28.3,20.2c1,1,1.6,1.7,2.9,0.2c14.1-16.6,32.9-25,53.5-29.7c24.7-5.6,49.7-6.1,74.9-4
	c20.4,1.7,40.3,5.8,59.1,14.1c28.5,12.6,50.7,31.8,63.2,61c7.3,17,10.3,34.8,10.4,53.1c0.2,72.2,0.1,144.4,0.1,216.6
	c0,2.6-0.9,3.1-3.2,3.1c-32.9,0-65.8,0.1-98.7,0.3c-2.9,0-2.6-1.6-2.6-3.4c0-20.5,0-41,0-61.5c0-46.8,0-93.5,0-140.3
	c0-12-1.2-23.9-5.8-35.2c-6.9-17-19.8-26-37.8-28.2c-8.2-1-16.4-0.8-24.4,1c-19.4,4.3-30.1,17.1-35,35.6c-2.4,9.2-3.1,18.6-3.1,28.1
	c0,66.6,0,133.2,0.1,199.9c0,3-0.5,4.1-3.9,4c-32.2-0.2-64.3-0.1-96.5,0c-3.1,0-4-0.6-4-3.9c0.1-67.1,0.1-134.3,0.1-201.4
	c0-11.8-1.2-23.5-5.6-34.6c-3.7-9.5-9.5-17.2-18.3-22.5c-1.8-1.1-3-1-4.8,0.2c-21.5,14.8-45.1,24.4-70.8,29
	c-2.1,0.4-2.7,1.5-3.1,3.2c-1.7,7.7-2.5,15.5-2.5,23.4c0,67.5,0,134.9,0,202.4c0,4.8,0.6,4.2-4.2,4.2c-32.2,0-64.3,0-96.5,0.1
	c-2.7,0-3.5-0.6-3.5-3.4c0-71.5,0-142.9-0.1-214.4c0-6.9,0.3-13.9,1.3-20.7c0.2-1.6,1.2-3.6-1.6-4.3c-0.5-0.1-0.4-0.8-0.3-1.4
	c3.7-19.8,6.5-39.8,9.8-59.6c0.3-2.1,0.1-2.7-2.1-2.7c-25.4-0.1-50.8-1.4-76.2-2.2c-12.2-0.4-24.4,0.4-36.6,0.5
	c-2.2,0-2.5,1-2.7,2.8c-1.9,20.2-1.5,40.5-1.7,60.8c-0.1,16.7,3.5,32.6,6.7,48.8c5.5,27.2,6,54.9,5.8,82.5
	C38.8,685.3,38.8,694,38.8,702.7z"/>
</svg>
